<mxfile host="Electron" modified="2023-10-27T10:42:20.812Z" agent="Mozilla/5.0 (X11; Linux x86_64) AppleWebKit/537.36 (KHTML, like Gecko) draw.io/22.0.3 Chrome/114.0.5735.289 Electron/25.8.4 Safari/537.36" etag="rXPXK5IfulR7I0-mxoYN" version="22.0.3" type="device">
  <diagram id="R2lEEEUBdFMjLlhIrx00" name="Page-1">
    <mxGraphModel dx="1041" dy="1894" grid="1" gridSize="10" guides="1" tooltips="1" connect="1" arrows="1" fold="1" page="1" pageScale="1" pageWidth="850" pageHeight="1100" math="0" shadow="0" extFonts="Permanent Marker^https://fonts.googleapis.com/css?family=Permanent+Marker">
      <root>
        <mxCell id="0" />
        <mxCell id="1" parent="0" />
        <mxCell id="TXvpiFFwsclp0lEu6n0N-1" value="Entries" style="shape=table;startSize=30;container=1;collapsible=1;childLayout=tableLayout;fixedRows=1;rowLines=0;fontStyle=1;align=center;resizeLast=1;fontFamily=Source Code Pro Semibold;fontSource=https%3A%2F%2Ffonts.googleapis.com%2Fcss%3Ffamily%3DSource%2BCode%2BPro%2BSemibold;" parent="1" vertex="1">
          <mxGeometry x="200" y="120" width="298" height="220" as="geometry" />
        </mxCell>
        <mxCell id="TXvpiFFwsclp0lEu6n0N-2" value="" style="shape=partialRectangle;collapsible=0;dropTarget=0;pointerEvents=0;fillColor=none;points=[[0,0.5],[1,0.5]];portConstraint=eastwest;top=0;left=0;right=0;bottom=1;fontFamily=Source Code Pro Semibold;fontSource=https%3A%2F%2Ffonts.googleapis.com%2Fcss%3Ffamily%3DSource%2BCode%2BPro%2BSemibold;" parent="TXvpiFFwsclp0lEu6n0N-1" vertex="1">
          <mxGeometry y="30" width="298" height="30" as="geometry" />
        </mxCell>
        <mxCell id="TXvpiFFwsclp0lEu6n0N-3" value="PK" style="shape=partialRectangle;overflow=hidden;connectable=0;fillColor=none;top=0;left=0;bottom=0;right=0;fontStyle=1;fontFamily=Source Code Pro Semibold;fontSource=https%3A%2F%2Ffonts.googleapis.com%2Fcss%3Ffamily%3DSource%2BCode%2BPro%2BSemibold;" parent="TXvpiFFwsclp0lEu6n0N-2" vertex="1">
          <mxGeometry width="30" height="30" as="geometry">
            <mxRectangle width="30" height="30" as="alternateBounds" />
          </mxGeometry>
        </mxCell>
        <mxCell id="TXvpiFFwsclp0lEu6n0N-4" value="id INTEGER AUTO_INCREMENT NOT NULL" style="shape=partialRectangle;overflow=hidden;connectable=0;fillColor=none;top=0;left=0;bottom=0;right=0;align=left;spacingLeft=6;fontStyle=1;fontFamily=Source Code Pro Semibold;fontSource=https%3A%2F%2Ffonts.googleapis.com%2Fcss%3Ffamily%3DSource%2BCode%2BPro%2BSemibold;" parent="TXvpiFFwsclp0lEu6n0N-2" vertex="1">
          <mxGeometry x="30" width="268" height="30" as="geometry">
            <mxRectangle width="268" height="30" as="alternateBounds" />
          </mxGeometry>
        </mxCell>
        <mxCell id="TXvpiFFwsclp0lEu6n0N-5" value="" style="shape=partialRectangle;collapsible=0;dropTarget=0;pointerEvents=0;fillColor=none;points=[[0,0.5],[1,0.5]];portConstraint=eastwest;top=0;left=0;right=0;bottom=0;fontFamily=Source Code Pro Semibold;fontSource=https%3A%2F%2Ffonts.googleapis.com%2Fcss%3Ffamily%3DSource%2BCode%2BPro%2BSemibold;" parent="TXvpiFFwsclp0lEu6n0N-1" vertex="1">
          <mxGeometry y="60" width="298" height="30" as="geometry" />
        </mxCell>
        <mxCell id="TXvpiFFwsclp0lEu6n0N-6" value="" style="shape=partialRectangle;overflow=hidden;connectable=0;fillColor=none;top=0;left=0;bottom=0;right=0;fontFamily=Source Code Pro Semibold;fontSource=https%3A%2F%2Ffonts.googleapis.com%2Fcss%3Ffamily%3DSource%2BCode%2BPro%2BSemibold;" parent="TXvpiFFwsclp0lEu6n0N-5" vertex="1">
          <mxGeometry width="30" height="30" as="geometry">
            <mxRectangle width="30" height="30" as="alternateBounds" />
          </mxGeometry>
        </mxCell>
        <mxCell id="TXvpiFFwsclp0lEu6n0N-7" value="title VARCHAR(99) NOT NUL" style="shape=partialRectangle;overflow=hidden;connectable=0;fillColor=none;top=0;left=0;bottom=0;right=0;align=left;spacingLeft=6;fontFamily=Source Code Pro Semibold;fontSource=https%3A%2F%2Ffonts.googleapis.com%2Fcss%3Ffamily%3DSource%2BCode%2BPro%2BSemibold;" parent="TXvpiFFwsclp0lEu6n0N-5" vertex="1">
          <mxGeometry x="30" width="268" height="30" as="geometry">
            <mxRectangle width="268" height="30" as="alternateBounds" />
          </mxGeometry>
        </mxCell>
        <mxCell id="TXvpiFFwsclp0lEu6n0N-8" value="" style="shape=partialRectangle;collapsible=0;dropTarget=0;pointerEvents=0;fillColor=none;points=[[0,0.5],[1,0.5]];portConstraint=eastwest;top=0;left=0;right=0;bottom=0;fontFamily=Source Code Pro Semibold;fontSource=https%3A%2F%2Ffonts.googleapis.com%2Fcss%3Ffamily%3DSource%2BCode%2BPro%2BSemibold;" parent="TXvpiFFwsclp0lEu6n0N-1" vertex="1">
          <mxGeometry y="90" width="298" height="30" as="geometry" />
        </mxCell>
        <mxCell id="TXvpiFFwsclp0lEu6n0N-9" value="" style="shape=partialRectangle;overflow=hidden;connectable=0;fillColor=none;top=0;left=0;bottom=0;right=0;fontFamily=Source Code Pro Semibold;fontSource=https%3A%2F%2Ffonts.googleapis.com%2Fcss%3Ffamily%3DSource%2BCode%2BPro%2BSemibold;" parent="TXvpiFFwsclp0lEu6n0N-8" vertex="1">
          <mxGeometry width="30" height="30" as="geometry">
            <mxRectangle width="30" height="30" as="alternateBounds" />
          </mxGeometry>
        </mxCell>
        <mxCell id="TXvpiFFwsclp0lEu6n0N-10" value="created TIMESTAMP NOT NULL" style="shape=partialRectangle;overflow=hidden;connectable=0;fillColor=none;top=0;left=0;bottom=0;right=0;align=left;spacingLeft=6;fontFamily=Source Code Pro Semibold;fontSource=https%3A%2F%2Ffonts.googleapis.com%2Fcss%3Ffamily%3DSource%2BCode%2BPro%2BSemibold;" parent="TXvpiFFwsclp0lEu6n0N-8" vertex="1">
          <mxGeometry x="30" width="268" height="30" as="geometry">
            <mxRectangle width="268" height="30" as="alternateBounds" />
          </mxGeometry>
        </mxCell>
        <mxCell id="TXvpiFFwsclp0lEu6n0N-36" style="edgeStyle=orthogonalEdgeStyle;rounded=0;orthogonalLoop=1;jettySize=auto;html=1;exitX=1;exitY=0.5;exitDx=0;exitDy=0;" parent="TXvpiFFwsclp0lEu6n0N-1" source="TXvpiFFwsclp0lEu6n0N-2" target="TXvpiFFwsclp0lEu6n0N-2" edge="1">
          <mxGeometry relative="1" as="geometry" />
        </mxCell>
        <mxCell id="5PcUVbLsaKdGZ_QtSYMr-2" value="" style="shape=partialRectangle;collapsible=0;dropTarget=0;pointerEvents=0;fillColor=none;points=[[0,0.5],[1,0.5]];portConstraint=eastwest;top=0;left=0;right=0;bottom=0;fontFamily=Source Code Pro Semibold;fontSource=https%3A%2F%2Ffonts.googleapis.com%2Fcss%3Ffamily%3DSource%2BCode%2BPro%2BSemibold;" vertex="1" parent="TXvpiFFwsclp0lEu6n0N-1">
          <mxGeometry y="120" width="298" height="30" as="geometry" />
        </mxCell>
        <mxCell id="5PcUVbLsaKdGZ_QtSYMr-3" value="" style="shape=partialRectangle;overflow=hidden;connectable=0;fillColor=none;top=0;left=0;bottom=0;right=0;fontFamily=Source Code Pro Semibold;fontSource=https%3A%2F%2Ffonts.googleapis.com%2Fcss%3Ffamily%3DSource%2BCode%2BPro%2BSemibold;" vertex="1" parent="5PcUVbLsaKdGZ_QtSYMr-2">
          <mxGeometry width="30" height="30" as="geometry">
            <mxRectangle width="30" height="30" as="alternateBounds" />
          </mxGeometry>
        </mxCell>
        <mxCell id="5PcUVbLsaKdGZ_QtSYMr-4" value="updated TIMESTAMP NOT NULL" style="shape=partialRectangle;overflow=hidden;connectable=0;fillColor=none;top=0;left=0;bottom=0;right=0;align=left;spacingLeft=6;fontFamily=Source Code Pro Semibold;fontSource=https%3A%2F%2Ffonts.googleapis.com%2Fcss%3Ffamily%3DSource%2BCode%2BPro%2BSemibold;" vertex="1" parent="5PcUVbLsaKdGZ_QtSYMr-2">
          <mxGeometry x="30" width="268" height="30" as="geometry">
            <mxRectangle width="268" height="30" as="alternateBounds" />
          </mxGeometry>
        </mxCell>
        <mxCell id="5PcUVbLsaKdGZ_QtSYMr-5" value="" style="shape=partialRectangle;collapsible=0;dropTarget=0;pointerEvents=0;fillColor=none;points=[[0,0.5],[1,0.5]];portConstraint=eastwest;top=0;left=0;right=0;bottom=0;fontFamily=Source Code Pro Semibold;fontSource=https%3A%2F%2Ffonts.googleapis.com%2Fcss%3Ffamily%3DSource%2BCode%2BPro%2BSemibold;" vertex="1" parent="TXvpiFFwsclp0lEu6n0N-1">
          <mxGeometry y="150" width="298" height="30" as="geometry" />
        </mxCell>
        <mxCell id="5PcUVbLsaKdGZ_QtSYMr-6" value=" " style="shape=partialRectangle;overflow=hidden;connectable=0;fillColor=none;top=0;left=0;bottom=0;right=0;fontFamily=Source Code Pro Semibold;fontSource=https%3A%2F%2Ffonts.googleapis.com%2Fcss%3Ffamily%3DSource%2BCode%2BPro%2BSemibold;" vertex="1" parent="5PcUVbLsaKdGZ_QtSYMr-5">
          <mxGeometry width="30" height="30" as="geometry">
            <mxRectangle width="30" height="30" as="alternateBounds" />
          </mxGeometry>
        </mxCell>
        <mxCell id="5PcUVbLsaKdGZ_QtSYMr-7" value="category VARCHAR(37) NULL" style="shape=partialRectangle;overflow=hidden;connectable=0;fillColor=none;top=0;left=0;bottom=0;right=0;align=left;spacingLeft=6;fontFamily=Source Code Pro Semibold;fontSource=https%3A%2F%2Ffonts.googleapis.com%2Fcss%3Ffamily%3DSource%2BCode%2BPro%2BSemibold;" vertex="1" parent="5PcUVbLsaKdGZ_QtSYMr-5">
          <mxGeometry x="30" width="268" height="30" as="geometry">
            <mxRectangle width="268" height="30" as="alternateBounds" />
          </mxGeometry>
        </mxCell>
        <mxCell id="5PcUVbLsaKdGZ_QtSYMr-8" value="" style="shape=partialRectangle;collapsible=0;dropTarget=0;pointerEvents=0;fillColor=none;points=[[0,0.5],[1,0.5]];portConstraint=eastwest;top=0;left=0;right=0;bottom=0;fontFamily=Source Code Pro Semibold;fontSource=https%3A%2F%2Ffonts.googleapis.com%2Fcss%3Ffamily%3DSource%2BCode%2BPro%2BSemibold;" vertex="1" parent="TXvpiFFwsclp0lEu6n0N-1">
          <mxGeometry y="180" width="298" height="30" as="geometry" />
        </mxCell>
        <mxCell id="5PcUVbLsaKdGZ_QtSYMr-9" value=" " style="shape=partialRectangle;overflow=hidden;connectable=0;fillColor=none;top=0;left=0;bottom=0;right=0;fontFamily=Source Code Pro Semibold;fontSource=https%3A%2F%2Ffonts.googleapis.com%2Fcss%3Ffamily%3DSource%2BCode%2BPro%2BSemibold;" vertex="1" parent="5PcUVbLsaKdGZ_QtSYMr-8">
          <mxGeometry width="30" height="30" as="geometry">
            <mxRectangle width="30" height="30" as="alternateBounds" />
          </mxGeometry>
        </mxCell>
        <mxCell id="5PcUVbLsaKdGZ_QtSYMr-10" value="content TEXT NULL" style="shape=partialRectangle;overflow=hidden;connectable=0;fillColor=none;top=0;left=0;bottom=0;right=0;align=left;spacingLeft=6;fontFamily=Source Code Pro Semibold;fontSource=https%3A%2F%2Ffonts.googleapis.com%2Fcss%3Ffamily%3DSource%2BCode%2BPro%2BSemibold;" vertex="1" parent="5PcUVbLsaKdGZ_QtSYMr-8">
          <mxGeometry x="30" width="268" height="30" as="geometry">
            <mxRectangle width="268" height="30" as="alternateBounds" />
          </mxGeometry>
        </mxCell>
        <mxCell id="5PcUVbLsaKdGZ_QtSYMr-1" value="" style="shape=image;verticalLabelPosition=bottom;labelBackgroundColor=default;verticalAlign=top;aspect=fixed;imageAspect=0;image=data:image/png,iVBORw0KGgoAAAANSUhEUgAAAkgAAAHxCAQAAAA8OosEAAAAIGNIUk0AAHomAACAhAAA+gAAAIDoAAB1MAAA6mAAADqYAAAXcJy6UTwAAAACYktHRAAAqo0jMgAAAAlwSFlzAAAOwwAADsMBx2+oZAAAAAd0SU1FB+cKGwoQHS5usvsAADrASURBVHja7d13eF1pfh/2z8VFB9EIsAHsvQ6H5Aw5vffZ1a62SdFKspqTKHYUOYmfx0+SJ08eO3ocx47l2LEtWVqttdq1tLuSdraMdnand05l770NO8EGot+bP3gHA5IASBDlHoC/zzzLvffU95x78b3vec97zkm5WambnjOEMNZlb262G4+VCKAQws26wYC6kZiJKAohDIXrxlJqEGNDCGHg+oml1E2MubnpQghj3422HfUxXV9xkhrQ1CGE0JfsjQ+90eCJKAohDEb2BobcQPRc730IIfQlO7D3/cdNqp8pb2RMCOFWkr2hMdm+5+kvkFL9vgohhOvL9vuq30DqLY5S/YwLIYS+9BY72X7G6TtmroyhCKUQwkD0HUb9RlLvB2OpPv7tr0YVQgj01UaU7ePfK6bqu52o/3/1Ml8I4VbX+1m0/v/t8eramk/PISk9YyhqSSGE/vVdO8pe8eraA7csFPax2JS+IykCKYRw47JSslI9Xl3+Xy96P5fWI4qy7fnemhDCWJEqdnUt6Yq6UsHlqfqeP98bEEIYQ66TNQV9jEiJMAohDId+EqbgmgmvnimEEIbO1clyRcoU6q2ResQvFdnpuKFprCo004yRKXQIYaA+a8y+tmk7JVvY76wjVkP6t77njOJBr7BVuf/VPxmpYocQBury2bY+FF414dWvRyiSzmk1yRxFg1zOR865NDJFDiEM3Kd1op51ox6vC3ud5bN/R9DD/on6QS7jC94f6WKHEAbqcgT10hep8JoJe389AspNNHGQyxhsDSuEMOz6qB3R+2n/njPGebYQwtC5TqYU9DFTCCEMp15TpmCgSwkhhOFSOPIPPMpqdVznFcMuyDhnn/M9hhWrVp3v/RNCGA69X1ybKhzwggat0x5/4MgV5dmp1esOXNEoPdfXPD3yxQsh5E3fgTRsdaRCC3Xa4kKPYV0yTjpzxVSNVuR774QQhkOqr66ReWhDSin0RQ06evyXQeaKIbPcoy6v+yyEMNI+C6TeHhk5bKf9H3Wbyn7Gp63ySPQqCmGs6T1VuocU9D1qOE32sLn9jJ9tTb/jQwhjwDVpk7fT/g9ZpbyPcQXus0ZpvooWQsiTvAXSXHeZ3ce4iR6wOF8FCyHkTR47Rt7joT5W/7jb+qw9hRDGrjwG0nx3m97L8GJfND9/xQoh5E0eAyltuc/1MvTzFkb9KIRbUl6vZZvpYY1XDSvzKxrjErsQbkl5/cuvsOSqi0Mq3OsO4/K6S0II+ZLnqsgUX1TXoxD1flW9dJ53SgghP/IcSFVWur+7x1G5hZ6J/kch3LLy3lhT7XfV5TpsTvcLxue/SCGEPMn7X3+ZxyxTgbR5vpLv4oQQ8ijvgZRS4NdNx0KPGp/v4oQQ8ijvgQSPuE2tFZ6Qh/vFhRAS4yYSoEmTriEuxiKnTddl1yCX04ozg17K1SapiDN/IYyAAQfSMW/YrHiIi3HcOEc9N+jlnJay1XeHsGRZHeZ6TMMQb3EI4VoDDqS9XrZtGK41q8X+QS9ltonKh2A5n+lywgcWRCCFMAIGHEitqj3sC/kudx+atBinagiX2G6THw75IWoIoTdjrBW5Vm2+ixBCuGmJOMsWQghEIIUQEiQCKYSQGBFIIYTEiEAKISRGBFIIITEikEIIiRGBFEJIjAikEEJijPFAOuNCvosQQrhhQ3zpyEE7ncy9nmaRurxu3G5vqLTajLyWIoRwo4Y0kLZ63WYtKmRd0OCSVX1G0gmHlZitbBg3rsk6lWZFIIUwSgxhIJ3wXes0utckWYcdtNPkPgNpux+q95vDGkiz3KPYxGFcQwhhKA1hID1nnTm+5u7c+xPOqEFWlw4dstJKFIE2F52WckGVlBIFyOjUrktKkeIed2hs0y6jIDekRIEUurTpQFqxQgXIok0h2nUqUqrOlxT02MR2HbpQqFQq96STLu25spWOtVsfhDDqDOHf4EbVnra6+3197vFG7Q5738eazfGQVeBNG5zV7iWVyj2pAhdt96Y9qqx0b49HbL/tTcdNMAc8YYI0TnrRu5jhIUtVgFavmqXYuzZa5RdlvKPWku77W37oAwelLfWsmlzAnfKWD5030+ctzPenEcItbogCqd1uBy01uUfN5vIJvDPe9i2TzHDOOhs87Dex3W4XtNui2GSPYLfXbFZpgU983w6/YDku+bf2qTPNOS8rMM5y1dq95QUXFWCLvVZ6zBxZx/3EJK12q7HeF5z0omkacwdt/94WVSY672Uf+x9MVWSrH/nIUpMd8ioRSSHk1ZAF0jaXzDbhmjFpkzxjifE6rPOq9z1lsieUuajG501UqhzrbDXLYypc9JI9tpsvZZe3POA+Ex3xig98WYMiH3lLly+aihY/t1apOWjXZJelvmS+QkU6nVOrC63esdESd5qg1W7f8qLPm+KgA273ZSXOK1Sf708jhFvcEAVSxjkZVb08BrvcPDPVK0Cxgza6KGu+AypUW2Q62Gu9lLssAa322eGwejtk3OV25aoc8I7ZqrXa6BOrPaAWnU44YIvTuXtFjnenJ65pSm/xMy2Wu12ZjGrf86H7TdHiogqzFUnFbWpDyLthb8ctUqvLAc3OO91nN8V9PlHsE6+B05p0OKFeRsrl5uou7cjKuuCoIktzAVRongbHHMy9v63Xrgad9ip0QBack3JKO+rU2e3nGs1UFY86CiHPhiiQUorRrO2aMV3O2+s97U656FgfXcM7FDjtze73GfWKlZmvzduot8829aqldepSa2r3tPXG2+9E7t2EPp9+m/We9bmll6tUjLke8pbvm2aNxaYoH9GdH0K40hAFUtpkJfY4ZfJVYy5Y60+Md5vFOqx3vI8lVBhvRY/iTDVHkQaTbLFPofO6PG5yLwXuynUVuJ56y3o8AqDMBDR4xjI/tsO3rfSspcO8u0MI/RmiQCqx3DQHuy8b+cx+f6fcH6hX4KRLfQbSWTPc36PeA01e1OHLuGi8RRZ0jzlpd64bAMedVGnmdct40RrLrxlaZLbf0+JfW2dGBFIIeTVEF9cWGG+BM57zVvewfdbap12LauUKpJzuEUezTcy1C8Fik+yzTuqK/1odkJEy06MeNzvXmXGy6drs7l7SbidNM63f8qVN0+qstiuWj9yrMjNV5vuzCOGWN2RtSGlfdsoW3/S+BiUO226ex1WotcnzbnfIh7Z0H1rVmGij5y3Q6nGTLHfU81rVoNUJi92j0l02e02XcWqk1brHAqWW2eUNKXNxwDuq3atIpp/ylfuiP/ecfRrR4agGa6Sstcs8jQ56XUGfrU8hhJExhGfZZvqat22z3g6FUqZYZrICj7vgTbt0qrHSuVwkVVrmmI8d1qhThfukrPeOFNKqLUTGJVlzlSpQ7Jx1jvktjRZ50uvW2YUu0612Gyg26YpzZYXqcz2yi63Q5CPrbZRWKmWGtCKFTvhEqTMq3JvrdBBCyJchPe2/Qr1FjmqTUmuh6Spwl0IHdak0X4njaqRQbJm0fYrMUIyZyk13UCtKNZrjcoN4rYc0gCOOesfTJhpvjTo7tKDabLPVIKXGU6b2uFy3ysOqVKBApYdMtt9FaeVqLFWhyFKFjmo13WxLe+nWGUIYSUPcD6m3tpwqj/R4t6j71eSrzshNvOa6/BY7zVZrogJdLqnUlutJVG1V7qq4z1wOpJ6qPXzFuzXWXDVPQy7sQghJkOgL3AvVOGG3jGJtdtpvoRnDesOSEEI+JTqQJvoNf+SPu4va6DfzfA/KEMJwSnQglbnTIge1Ia3SZBXJLnAIYVAS/fddoESJchmkFHbf1yiEMDYlOpAuizajEG4VY/wxSCGE0SQCKYSQGBFIIYTEiEAKISRGBFIIITEikEIIiRGBFEJIjAH3Q2p3ylEXB7najIyCUZGGXY5riieShDAiBhxIGW3OOjLI1R5zqper+5Moo0lHvgsRwi1iwIFUqsFsXxrkal+13hr35Hvrb0CbzX4QD0gKYUTcxKUj5aZZMcjVHvCJuYNeykho1aYsd//tEMLwGg3NOCGEW0QEUgghMSKQQgiJEYEUQkiMCKQQQmJEIIUQEiMCKYSQGBFIIYTEiEAKISRGBFIIITEikEIIiRGBFEJIjAikEEJiRCCFEBIjAimEkBgRSCGExIhACiEkRgRSCCExIpBCCIkRgRRCSIwIpBBCYkQghRASIwIphJAYEUghhMSIQAohJEYEUgghMSKQQgiJEYEUQkiMCKQQQmJEIIUQEiMCKYSQGBFIIYTEiEAKISRGBFIIITEK812AMFBZl7TL5rsY/SpRMka/Wp1adOS7EKPIOEVSA5h+bH5rxrROH2rSle9i9KveIhPzXYhhccJ2Zwb0J3Yr67LSNCUDmCMCadRp9ivGq8h3MfqU1a7VH/hSvgsyLP7Sc5qMy3cxRoUux3zVf2fuAOaJQBqF2v198/NdiD5lnfInMvkuxjDpsNzCAf2J3bpa/VDJAL8JEUijUFZNgg+IMrLSCW/junlZJWoTvPeTpEWFggF+E+IsWwghMSKQQgiJEYEUQkiMCKQQQmJEIIUQEiMCKYSQGDdx2r/VYesGudp9Ttgz6KWMhHa7tI7Zk9ghJMuAA+mSI044N8jV7nHERbvyvfU3oMtRx0bF1Uv7feT8VcMKPGqSol6nz+qQVXRVJXm/bbhbTb43Z1S5YJNd13QBnGGJSX3O06RQ5XWXnLHRAcvM7h5yygdOm2tVH5/rcDpvi0OeVD1saxhwIBUo12DpIFfboc1MS4Zts4ZOh1LHRsWR7Sde9In6K66zSlupvtcvbqfTXrPSNKVXDD/hAyyJQBqQFlv8RPVVe7rFtD4Dab1d5rn9ukvO2uNt43OBlNHkJe8Yb1ZerqdrsdW77ktSIJWaYprfHuRqn1PqcU8O22YNnVbv2TsqOrS3O6vD6iuGpVVL9zp1hyP+wgSTrwqkGvMZ0OWQgaxWxy015Ypvyux+akBv2ar0hgKp3TntoEuTN7xonFUW5+U7mdHqzLBe2D0a/tLCDSo2w3/dS22uHWkdmmWUKlMoq8N5p7VoUy6rS1qbFsVmmoni3JxtWnRIq1Dc/Yvc4byMAuVKRkXNceQ84G5VVw3L6tSlRIsWWaXKpGW1OqNNp3aFOlCgWUaRQunufX95zs/+QLucsdb3VHvaXd012BYtuhQrz9XO2hRId38u7bKyKMgttUNX92vapBWiywWdUsqUSPv0YD6lTbtileh0UYfiK6KoQ4s2lCnr40fvZkQg3QI+0anSSes1m2mJSbKaHJJxxAFpnU6qsdtuU82V0mGONFrttcMJlVaYrkyBjA5HvaFVqaVmqYwv0HW0Oa3JLJvt0mGWxepl7dYi44RP1DuMEus1m2KC8u4Ld1udctG83LuMJu/5M6V+yR252MtqsdUu502xVINSHFRoYve9ID7RplOXKjPBCadVma4AbQ6oNkGnc950RpEF5qpRKOuALkX2O2SmB3U66X3HTdWgM7fkDp/Y5oCUuRarG7L2rPg+3QJ+Zrsyh5U655RlfkmDl70t421HfM5Zf6XWeyaYbrbD2vwjM/Ed72tTosWfedRvmuy8V/21LlUueMFqT1mY741LuH3+zhYLbVGoXafb/YYqP3RAq3dkLfdtXNAua4Iazf4wN+fHfqTSP8m9a/KG7yn1DyzvvvnJBX9or7QiTTKe8jv4a0c946ncFH8uo8xpE/1j8LfedZffUIUfeNvT7vahHzij0iU/s8wzluv0Z867pFXGPPd42w+cUCKtU3HujPObXnBUOV5X6dfcO0T7KwJpTGn24x7vCpS7V6l2h8316+bo8rx3rDfH4+ps8ZRVGrypScrvW6jYbru0yej0svWWW6NOs41+5gWP2+N9s/09aRk/t83HEUg9bHS++3AI7jZRl/MOmeN/UqnZyzb5mV/1m/6Dwx7xlNMu2udpDylxwXbP22aOYpzV6v7ckk76uR8771lLVeQOnk970Q5ftNg4J33oAxM8ZrqDToGMPZqs1uh9J5xT5aKLWhy31+1Yr9x4272g1P+mXNZb3vJXKjVqtdPtHtOg3Uk/UOK3zHXBBj8CZ3yk1a9aIOuA53xkYnddbnAikMaQdif9vMf7Ig3uVIqUCVarwr02OC+jzgQpdaYYhwKVHlaNE7l5M16XtsQSpTrVeM9mK1zUpFqxqQo8YYUJ+d7kRNlo7xWtavNMREahNeYr1WGndY4o0KhMofEmOS+lzIOWK9Qq62fe1qDYXntU505RnPOyMlmV9jmvIreOJm+ZZIWZikyWsck77nOnfT6x12xd3tBmsoWO2WeX2+13QbEW+9ym2QXLlFnnlK9aKC2lzAUfWOvLKLXKGuOcstZxv2O1au340CGX25SadJkpq16N4iH7JkQgjSEFKj3Y43RwWk3uF7tKQ67doU6ZzDU9ZkpNNR665846JmWTM6DdJc2aTTfLRt80xyR15qrP9yYnygIzrzg/eXmPFpngdkUoUiJ9TZ+2AnWmKkexKab7yC9gp8OmmqgTrT5xj0cc9aoX/GLuj7/NUROstRmccEmTTtNNtNM2s2VsMUG98SbK2GqZrTJmKLBPp+3azNLpqCrLcjHQYKYP7APVpqhBl826zFaNYnUaHUaF6Xb7mXNKNZitJtqQxqILCpUNYv5Ck32l1zNflbk/jr6U9NpfptUuR0BWmVIlZnlY1m57VKm12Gpz8r3TEuTOXs6yUai63+BOKev+GRhvte87otRh2e7m7TKzPWm5ffb4mUb3qAVZzTbkoqBLFdJKTbXbPhcdd9p9GhSpU2ebLrtVmeWwQ5p8pNQkbS6p7VG6QoW5LgafPqSh3dEeP1/pXPtVhTU6bfe6DlMssNSsIeq5FoGUIDtdMNHk64THzSi8zi9YuteeRxMs7743YpuMiYrcZr6Ntjhmr20uaLyqH1MYjBqr/cAH2pw02fLc0CoPu12hBs/4f/1QpTuVIW2qlcpBRruMUiyy2zF7fSRlsXrUm+d5p520xHIZm+221WzVzivS0mP9GZmrTuGnpHvUubO5E/8Z80z1ifUOOuun9vqcVUOyByKQEuQd31Xj6x41Tmne+/gUqbTCMmlZnXZqU+GE8yZ7wAN427ftdcL0fO+2MaRIjYm2OO641Rp7DC/EOPfY7kdeV2+hlGJV7jdRgawL9ulQhFlm2e1tH2jI1bdrzHDcm5pNM8sxRd5zxC+oM06dtba5A3Ro1nFVTWecFY5p1akQnbmLxlodkjbfYlnn/Cu77B2iQMr3tz5c4Zyf+m993l+7mOeSFFjggK3OIOOs/9u3HPSB/+h7uSmqom40DMo85azdanoN+hK/ZrF1PnRJhVk+skMzOm33L3w/962pU+59Fz2aq2uXaVTnFRm1SlUo8baMeSrVm6nLK7ml77SB7nrZZdUeUOglh8F562Rx1H/2J/bnpqi54tzi4EQNKWEyLtjof/FnvuRzPS6pvBFtDvj9K65xKrDa471OW6AE37auu8/KldJ+yTmv2GuGiza74KumK7bF805arNVGze4wOd87LEG+48dXHPDU+1yfh8oVTvqe89d8wmUe8hM73WlBH/N9xTe8oMKzftkf+o516hy3Q6lfyrXwTDPdO6ZYlDucSxnnNq+5W6WU8RptcpsSKSx0r3f97xa75AMXPZyrLX2q0EQrveaQxbpsy/VCmmq+1/yRBeoctNXyq2Ls5kUgJU5WqyNO+8TL7vPEDX/U9dY4e1WtpUCtQrNVdbcF1bpLnUpFZvgNZ1VKm2i5qbnxde6QVStlsl/1ob22yFro6xaoUuIZdY5bq9hkj7htCH8bR7MS8zyl8KoDjipFqizo0Wg8yYrcJ/EFlY4Zp84KepzKKFCp0gQz1IGU6VZ0LyElZZkn7ZV2yVy/5z3HHFHqHivMz8XfBPOMt9i47nis9qy0NSZisod0WZbrzd3gGTN87GNlZlpgtQodlrnUfda13FdMt88B4yyzwmFlSjxhgs322KnG5yzr/v4MVgRSQrXa5ZDt1rnTfZbfwB/+VM90d+z/VEqtcrdry329GecBJcql1fqc81ImyvY4CzfFA1IqpaTNU2mBc1KmmiWNQovUO65JsYkah/Gq79Gl3HLTrrlrVqFJit2prXvILJW5n4zZipxTrcbjXHURbqclZuQ+8QLz1V/x2KVK91mqTIlSy1U77qJy03pEQod29R7rcaKizGLjTFSNCkvUGJ8LwTLTjTdFk1K1JqtD2oM6u+u+aTNV+sQ5ZeoVOWMcGpWb7ox2tWapGbIgiUBKsFY77fO29e633LzrnFit6XN8Y4/XhWbkXqU1do+p6x5fdcWJ68nXHJKVmR7N2NcoNsWUPsb1fMZwXY89Pc006HFolnHBYS3Oe7A7XlImXNPpsEFD9+uZuavUPnVWk322mWB5j8PFAuMs7n5dfcUPSVr1VQ3SBdd05uhZ7k/XXZvrfDC0IpASrsNB3/J3nvSk5d3dF8NY1G6/n2hSbeFNf84HfGy7DqtH6eO+I5CuI6tFm5O5DoLD61yfd6Y85Tue96CveSB3Q4kw9rQ55TC+3Gdt6/rO+USbZZ7O98bcpAik62j3kS3+jxFpLTnsaD9jz/qhFy33q7m+tGGsqfaoRwe5jMt9xEavCKTr6LDJGUdGpMNW53Xvxddit1dHxR2+Q7gZEUjXUeoZ+905Ig2571jrWD/jGz3gKbO8lO+dEsIwiUC6jkIzTPbEEHWM71+bbX0G0hz3uttK8xnCG4aGkCwRSDegUH2PE63Dp7rXfr1FZlppjfssUIWz+d4dIQybCKREK9dogft8zuxB3ZgkhNEhAimxytVa7BlfMCvfRQlhhEQgJVJaodV+zVMjcqgYQlJEICVQqQf9ljtNjBt8hFtMBFLCTPagX3C7BuP6/HDK/fMER1VWh+Yx25v8rJf8JHdbj9C/Lqc82OPS4hsRgZQgjX7ZBCvMU93vk9s7fG3Q7Uo7/JF/MSw3D8lq8r28PHl+JJRZbvZVF7QOVLvvmmL5mH9mS5sX1Q8wYiKQEuR2y3K3iOhfh2dzD8i5eW/4c786LL/0GUe8OmYDqdSiQfdKu2Sj+QO+/d7o0+yMtgH2motASpCx/gUN4XrintohhMSIQAohJEYEUgghMSKQQgiJEYEUQkiMCKQQQmJEIIUQEiMCKYSQGBFIIYTEiEAKISRGXDoSAo5Y6xNfMSl+o/MqAikEdNjmL/zMwz5nRoJv7jLWRSCFAJrttMceH7jL/RaqyHeBbkkRSCF067Lddh9b724rLVIxZm+jklQRSCFcZZddXvKIpy0xw7h4Dt4IikAKoRdH/IW/8YRfc5tJyiOURshNBtJg75iczf2XfKOjlGE4XPKc5zzq73tUHXH4NgJuIpBO2qF5kKvdaJ9LduR7629Ah4Mu5LsQIY/esckyX/Ilk/NdlFvAgANpoTU2aBrkaitNkR70UkZCVplf1JjvYowqHVq94VK+izEgJ23uY0yLFmvt92OP+aL2Xh93HobKgANpgoctGfRqu7QqGpZnXgyHCSbmuwijSMY7jtjnnXwXZEDanexnbLM9DtlvrRYr8l3UMW3AgVRkuun5LnVIsKwOWelR83Pzaamv12zdpclFBdGSNKziLFsYYmkrTbLCXfkuyICc8LIjfY4tNsF8qzzjJWX5LuqYFoEUhtx4le71lXwXY0D2+8QPex1TrNosD/iKNXgvzroOqwikEPpUoMhcX/HVIWg3DTciAimEPhSZ57c9ZVpcbDtiIpBC6EWV2/2iBzQYP8qa50e3CKQQrlLvTg9Zbb4pcU5thEUghdCtQL07rLHGbabkuzC3pAikEECJBous9IRVavNdmFtWBFIIKDbHf+XLVsd1/XkVgRQCJvplv5bvQoQIpBAQ9aKEiEAKQdzrKCnimS8hhMSIQAohJEYEUgghMSKQQgiJEY3ao1K71kEvgdZh+T3KapPJwz4ZKV3aBrn3W3XpHPRSkq9V54C/CRFIo9JmXYNcwlbtPhiWq9izTjo/ZiOp03GbdQxqGW2OKbbBiXxvzDBrdUjNAO8fFYE0Kn3f+EEu4ZRmfzxMvW9aHBp0YCbVOetsG+SlJV022W/XmH9Yd5ddlmsf0DwRSKPSr1g8yCWst9l/P0w1pBP+9ZjtaFhppRUWDmoZrf696e7VkO+NGWYtvq98gE9piUAalZZZPcgldCiyRvkwlC3jiOoxe7ak2BS3WTWoZVzyN2ZaYXa+N2aYNXtP2wC/CWP1exNCGIUikEIIiRGBFEJIjAikEEJiRCCFEBIjAimEkBgRSCGExIhACiEkRgRSCCExIpBCCIkRgRRCSIwIpBBCYkQghRASIwIphJAYEUghhMSIQAohJEYEUgghMSKQQgiJEYEUQkiMCKQQQmJEIIUQEiMCKYSQGBFIIYTEiEAKISTGgB8U2aVZS75LPQRqFEUah5AwAw6kY77jp/ku9aAV+KduH/PPVg9htBlwIO1z1BQr813uQbnoFVvNiUAKIWEGHEjtCkwd5YHU5APtMvkuRgjhKgMOJNLK1OS73IPSpVgq34UIIVwj2nVDCIkRgRRCSIwIpBBCYkQghRASIwIphJAYEUghhMS4idP+/WtxUSeKVCvK99aFEEaVIQ2kM3bb5bRiWW2mWmq68gEuI2O7GuOVDmiuc46YpDYqfCGMakP4F3zOm37gVfucd94WP/K8XToGtIwuTX5ol9YBzdVml+edjL7XIYxyQ1hD2uhvFHvE/abJ2OyHPlakXuMAltHhkJcsGuCaL9rqbZ8fif2VEKcd63V4VsZZhcqve7h8RsaxAddfb0TGiQH+DI0uLU71sfdvfAmXnHdyWPZ+klxyQXqA8wxRIGVl/FiJr3sIFLjNJN+y2wcaZWV1yMiiQKG0lIxOFOiUQUqRQhkd2tGhTadCGZ06c8srzBW1TQqZ7rnSMtp1ymrXpgBdOmWRUig9Jg/iyjznvV7HZDT7SxPdYep1lnFQu28MSytf1kXnBvxFHC2K7HHCu4NaRodtjjupdpjKmJFVkICLo9p9ZOUA/wKHKJDabbfVI6b3GFbvIRfMRtY5f2mLZsVmeNJKKWf8VJt5fu4IJvmqOxz3irc1+4mtHnOvJj/2lk7M9Zi7wJ+qVGCPfQpU+7rFdnnNe874U1N9XZm3vOGUlCpPWKM+35/KkCv3L+3V3uu4Lmc0O6H5ukuZ6IvDFhoVfsttedxDw+lLau0b5DLSVilWNmxlPOWcxgTUv4qs8kumDWieIQukbSosvOLPP22xLiU6nfTvnXabaU5b79/5Hau02W+dWer9sp22+IFWq6zSZrNF7jDTDs/Za43Jztjhh5o8jX1OqzHTs4573Tf9nunudMZpa8xW5Uc2meExHT70X1zyiLp8fy5DrNCTLvXRXtZqnZ+q9qgnr7OUjC6F1/kV7fAfHPKkxwdcxlJV+d5Nw6TR5wfYwnmtrC6pYavDdPqeH1vs10d+5/SiXsmAph+iQGqzXlb9VXcYuvzutBft8mV3qHXJJD/wQ/NktGk3xbMaLFBgs0Pu0WiBQjMsUmSD9R70uCqtJnrdq9ao1eas1R5T46wK37dfgxkalVhojku26nC723SZ5W8VjMHWjAK1fVb2WxyRVqx+gL9LvdvrkO3uGpJljRXFJuS7CNex2V471PmHKkdhg8WQlbhDVnGvBwEXvKPQ7Waq1WilO23wiXbUWGiRarPMUKRNgSIVUspUOOegQiuU6VJkuslO2SOLceaaZ4LpVsg4r1OpUgUqjFOiyDm77dFusS9ably+9/Aods4551zIdzHCAHR527tO2+gVbfkuzE0YohpS2hS7XdRxRTPp5Ypph5NmK89lX7k5zjulDNUaclMWXRNlzS7ostvu3JLOKXTYSkzqPhy4tkm2xkrnrbXPFPPVqo9ACreUA961S9Yp37La5FF3cmGIAqnILC84bLHxPYaecE4lCjQozg0r6HFztIp+m5w7nLapx/tZKsH4fkPmAeN86Kjt3lLrF6xRPZL7M4Q8ynjJBq1o9rJNqkfdD/IQBVKp1b5ljxNqu+Om00tetcznpOzrbgjMaFdw3eZUUsos8c9yU3bp0Kn0ukeYHYrd6xHNtnnbT31b2qN527khjKwLXrADZLX4jtnmJeD0/0AMURtSWqMFNl3RM3ufD7WapkRDrs0IzvnQJLOve1KyXKFDtusCxz3nD22Xvc5c23zTmyi3wu9arXBUHkeHcHN+ZHv3Q8o6/WDA1zzk3xAFUkqBr5viOf/B2/ba43l/5qzHPabOlxX5gY1aHfGC16xQ3m9uH3ZIrTuV+oZNWhz2ite1mdPPXG12O2K8S17ygouy9mpSP2ydz0JIlqw2f+lQjyGX/NiufBdrgIbw0pH5vuwNu+zO9cEu9qx71eiy1NM2+54KrZqs9FXVTqjoblf6TJGpZtrkokcs8wUv+65qrS6a4f5eupKNV4Rxpqn2kn2+4DZveN5HCp1T7BEL8r2HQxgRl7xsi0s9hmT9zAPmDWMXzKE3hIFUZoUah51yVMoMEyw2EWlVHjXdURcVm2CqBQpUe1Sm++klCxTlpq31dReUqlfnQeOdd1raeDPNAV8wzqRc0Sf5NfOUKbHIr2tXqcoKlQ65qMs8dZZc0cgewliVccY3nLqqw+xBb1k6qnrND+ntRyostVSrJikTepxwTGvU6IIWxd0RVGV1jzlnmdU97SPdQyd4BKeke9SmHuux1HpP515P9kz38InaXNBlwijsFhbCzblovdeuech9xptWWjDA3tL5NOQ3aKPUlF6HV+ZO2w/UwK9GKxlFH0AIg5d1xN8438uYbdZ60Lx8F/CGRSUihFGv1Q4/7nVMlw+9kjtXPRpEIIUw6u3yc2f6GLfFq87mu4A3LAIphFGu0wbP9zN2m+fyXcQbFoEUwii31TuO9jN+n584O0pu8ByBFMKo1mmtt/q9zc5FW/w8d+/VpItACmFU22ftdfpjZx33X5wdFU3bw3DaP4Qwcs6Y1KN3Hs32+cQky3sMS6nUcd0rQZMgAimEUW2NNVe83+kP/bXHfDPfBbspccgWQkiMCKQQQmIM+JAt45idg76pQVZGKm9p2GqL+0bFEXUIt5YBB1KrDmmlg1ztUadNNDFPG51Fy6g45xDCrWXAgZRWZ0qPa+tvzts2W+WOPG30GWeUjLJbe4ZwKxhwIJWoM+2K04w346ILVgx6KTfrmJ+qHHXPYwhh7ItG7RBCYkQghRASIwIphJAYEUghhMSIQAohJEYEUgghMSKQQgiJEYEUQkiMCKQQQmJEIIUQEiMCKYSQGBFIIYTEiEAKISRGBFIIITEikEIIiRGBFEJIjAikEEJiRCCFEBIjAimEkBgRSCGExIhACiEkRgRSCCExIpBCCIkRgRRCSIwIpBBCYkQghRASY8CP0h4rmv2lTL4LMeQ6HHJRfb6LEcJNumUDab/3nMp3IYZcVptmNcrzXZAQbsotG0idJqrIdyGGxSKPmp7vQoRwU27ZQFrul43LdyGGRZFZKvNdiBBuyi0bSMzTkO8ihBCuEGfZQgiJEYGUc0lHvosQwi0vAimnKHZFCHl3C7chXako3wUIIUS1IISQHBFIIYTEiEAKISRGBFIIITEG3KjdbKeXvTvI1R5w3Cbfy9NGt/jILJ15WnsIoS8DDqQS1QrdOcjVFktZYHGeNvq8AyqichhC4gw4kArVmu3ZQa82Y7UH87TRJ32kLAIphMS5iX5IxcabNsjV1qs0YdBLuVlFyiOOQkig+LsMISRGBFIIITEikEIIiRGBFEJIjAik0Kc5Zmq20+l8FyTcMuJq/9DtqFeduGLIDs3W+/9U9xhW6XYr4pcsDIsIpNCtwBve1tJjyGlt9vlmj69JPju0hrEvAil0m2SaFnuuGnrJgR7vqq2yWCrfRQ1jVNS8Qw/PWH6d36i5nlUdgRSGSQRS6GGF1Sb3M77I0kFfNhRC3yKQwhUedF8/Y5d7UE2+ixjGsAikcIWl7jalj3Fpd3kovjJhGMW3K1xhnFXu72PcUms05ruAYUyLQApXWehR43sZnvawlYrzXbwwpkUghavUWenuXobPcJ/Z+S5cGOMikMI1ZvqqsquGpTxjsdJ8Fy2McRFI4Rr17rPsikdnplT6oln5LlgY8yKQQi/q/K6KHu+LfcUcJfkuVhjzIpBCLyo9aXH3YVtKpb9nYvTPDsMuAin0Iq3eV03Mvav2mCXRfhRGQARS6FXa5y1UhpRJvq4yviphBMS3LPSqwBwPakC12z1wRRN3CMMlAin06VnLFJvl86qi/SiMiLgf0iiQldElO+LrXeB2my3wqLYRWFtKgfSYDr5OXSOwlnZdsjIj8pmRHuLPLAJpVDjjgEt5WO9kj6uyY0RioliDRuk8bOVIOeiYzmFfy2EndDrpvRHYoiINGoc0RCKQRoEu/5ftsiPejtNln3PqbBuBdWV0KvbNXq+iGxv2+Dc2qB329bTZo812/8+wrymjU9Z/7vcOWgMVgTQKZB003YIrbrU/EjJO6VSjfATW1Wa/H4/IIU2+XNRqbp93Uhg6WWddVKNy2NfU7qC/GuI6XwTSqJDRYLH6EV9vK4pH5MxHi5RMHtrJRk5WiTrLR2BN7boUj8DBb6vCIW/bjEAK/YjOkKPRaL5FTJz2DyEkRgRSCCExIpBCCIkRgRRCSIwIpBBCYkQghRASI077jwH7HdKCtGrT1CXmQ23TOuKdOUebTmett1Rdj3747ztvqmlX3LNzpJyyw0Sz8vYdSsp3N9yULs32es8uHQpllJjrEY2JuNnsKfu0jkDP5NGt0yHf8A9V5gKpzRbfUeTxIb0g48Yd8gN3mhqBFG7GJR/7tgINZqhwwmbf0u7zGhNwLL7J82oikK4jo8V+F2VAq53+lXO+almeHlne6oTWPPaYH3AgpWS1D/rK8zYd2vJy/Tq06BoTt7nIOOKbLvkHVuWuXDrjX3rNQnXKXb5tSdblG3ukkEVWSlZWFmmp3DSfTZGVIjffZ+NJk9tn/S81pQApGec1qZaRyi3x8p/cZ8sJV+uy3b+01+95ovsyoWzu+r4CBeQ+t1SPPXh5r6a6P5tsL68//cQKut9f/sQyst3L/XSKnvLxmQ04kCY54T/6Pwe52lbtvp23A4usDl8YkUtGh9dx7zjsdyzrbm2o9N/4A+tNNR9tttutw3xzc205rU4Yr9lOx9R4RKHTtjqi3p1q0O60IsV22KvMfepcsMd2Re7vbptqtsNuGYvNVomsVsdM0mSXU8ZboUbKCU0uXzI7Qxo7bNOp2iq1Y/oWI4Ox1jec9Pse71E7ynjFWRUWmoOsY1pM7HHh7CFkVOTuf97mhKrc3Fn7TVGGs3bai9vNUI6MS46bZoNjZlkG3nNUiQVXlGeXLTpVWmX8iB1KDXg9M/2Pvj7qL4IssNC4fBdi0E7YbpKHVHf/shVq9I+VqcM+z9mvAC+b4jEP6vC6d9VqcUy7Uz603FZHtenyod9VaZ23dCi3F4e9b7mztut0yXt+22zFtnneIQV4yQxPWqPFy9Zq0OS0Lp1e9tumWWeD8zp8168o8YL12hVq97LH3DGGbzJy817x1y76uidU5yL7jA+95oxiGS9b6mn19vprT7rfOLR51yvmaDLVV8CPvWGZJ83QZre/9DULbfSSowrwcws97TZNXvOuqY44Yo2p+GNHFOjyZndpzvg7H2lTqM0rHnWnuhHZCwMOpHLzzR+RooXrOe+o8Vf8eqUU5T6dPV60y72mKrTdOj9VZbFTNplitbtd8JbXnbbSHVpttdEH7nXWDq3u8kVpb/jYaSs8o8B+L/hIjRZvO+RuU6XssdUbys1w0nqXrPaAjAN+7AVfttAeJ9V7WI2XbTDDSgXOe9mLpkYgXaXDz73msJWe6LFvjnlRl19Qqct222X8ltlabDLLQrR53UV1Tthpr9n4yH4llprhkncdlbLRy864TwM+tEFaqUpHfYw10iY67y3rPWK2Inu84xx4x3qN7pDW7GUvm5LUQArJ0aHVhD7G7bdZgyeMlzZHp3e8bTFaTLLaImdlvC5ruUXalfnYIZ1oN84K9+hSaIN2sz0ka7aXHHfJLltN8bjxUhZqt8lGM9CiwRpzdGrwc1s8ZY7p1hnvLhx0zgTL1WhV4rSqfO+4xPnQSScVaetx49nTtjntax5SiinOe9fnTTbbYQct1OmMdZ60yCe22mmmVmc0aHUMLdapV2mdw5Z5TC2mOmunje6V1Wyu+9TK2u8dkz1kpmLTnPcG2K/JEsvValfixIg1sUcgjWIFfX58LY5ptjgXV5Mtsd1+UGqRRhSbIGWROmllPb5uxWZagJQJiszMnQCuyzVqnnTSBHvsya3loiOgzDKTUahcmbZcY+inptthoyIzVJnjgVF9e4zh8YF57nfcHq/5qjIFOGGXNkXWK8AlGSdtN95CuxzSrNM25ywxWY0O+3XYp9NtjmjS4px9fknKYWnzcvepnGGpo44ipdxKtcp0OOOoZ01WjKmW+xhMs91mpWaqMtM9I9beG4E0ipWo6uUeiyelXHRMR4+eLJXG56riNSb3qKHMuKYlrcKkHpXzSddU1C/Z6ljudatMrrWj1pR+uvE94Iy3fVeVqaa5x+y8dPlLsjrPWGO7v/Ka+VYoQ5cWR/2oe5oLqpyWsdwr9jugwlrTzVZhlk0OuuA9BZbodMFhh1xyhzYnFPa4sd/4XHN4gToNytDihAum5IKguPsOWPdp8obvqzTVNHebM0JtrhFIo9g4dT7Rrqi7UTury98qMl9acY+vUHbITkOMM9ucHkttuIF5av2WB6210R6vec3/bEUC+kklyTNWqrbEs/7UH/unpkqjxDR3dk+TVWqetJlm2WW7Oba5Xxnmme5dB2wywxz77M319Z7iogKl3Y9E7+170KVLqpf7Ptb4dfdba4N93vCa37d6RD6zCKRRbJIl3vWCJ7ov0Gi3zfNmW2aGzTa7LTe82bkh6klSZr4v5V6f1XRDVfnDxplmmi9p9jPftsvsEbjZ/WhSoxgVFrnfn/szv2EWqPLV7mkuOJ17Kssc+2xwUZNHjUOVBmnvO+gO44y300c63aFYo+n222tubhnnNF+15mqzjLf/mjtjH1Gm0Vd8Uauf+Y6d5o1Is3b8UI1i4y03zwvecxa02ee70h40R7VCG3N9bk/a5byZQ7DGCYptdVyREilv+HPv38BcP/GfbFCqQpUGBXl5xlyyXe6wmDLRk273nnedNNUSZ/0XnUqUOOA7/sgFWawy1xHbzDVdkcsHYJXelbFarUbl9jhilSJp9ZrtzDWVH7FDypQr1lyg0jQfOq8L+73vNPipP/GxEhUqR/QzixrSKFZopl/3DX/lHXWKtDthr89Zpdp8d/m5f2e+InvtNMvTQ7DGZY57019YrsABm9SZ1+e0xTpt8E1ParDB9+wzwXnvmWxGtCH1ochUv+3feNMUq801zY90mq7ZBnstUC2FCRq954BHlOZqFJPNsk6jakUaVTlnjqWKcKej1vtP5mCz/Va5+6p1TvKI/+SbFiqx3wc6wHQbfM9+k1z0vglmjcBTTIhAGuXGucNF7zvnuC4V6n3VGpOkTfKgQrusVSxliTvN0W6Sebkm7UL1VpuUu6SzwnyTpY03O9fnN6XKcjNy7Q9p801VapIHFNvmI60K3WaFBZhifnfElJjn8sMBFnjYOidl3emiXTZLK1DpPgsScfFvMlz5OVBipSftd9YFUz2tzFGHZRS4z5rc1QVFJhiv1YPdBzgTrLTHXCWYYKEj5uYOimd5Uq2DPlEi6x73aHRag4Xd5zor3anZDuuVGu8Ox0yWtlKTHbbaoUC5L1o0Qp9ZBNIoV+opsx1zXKtqM9yWaysqMsskm+xUaJL5piJtgapcM3ShBl8zI/e1rPeEKYrNUNTdHlXrSRNygVTkCXWqpc1UZ4ZDLplmicnosFht95mccR5BDWapMEehWqWesshh51SaY0E8y6SHy5/DzO54SCnymKOKFKi2xlT7HFVsmjk9+pwVqNbYo3ZaYbGvqVOGMrer7f4Ui92m0WZ7lZlqkTpUuM2E7hpPWr0v22iHIvPUOGyKQpM8YYHDzqowx8IeDePD67Pr9FI93qc++y/bfNPLDkOkwy+73Zo8PJdt5LTY7N94PVc/G4vW+1N1vjDo5ZzW5iWb3dV9ciFfWm3zz7xp2gDmSVXkrsL+9ArvT0/85ZqoooYUwqjyqgM2mzAij5wceRFIIYwqH9htmkdyHQPGmgikEEaVf6RNscox2mMnAimEUSU/t7YdKWMzZkMIo1IEUgghMSKQQgiJEYEUQkiMCKQQQmJEIIUQEiMCKYSQGNEPaVRo8TPvjemLUjudu+pO3GNNh5PetyXfxRhCXc4P+WcWgTQqXL4H8uDuInTGa1ZoTOgt9juccDTfhRhmhcYP8jZ5GUdtsNT0fG8K6HQy97iHoROBNCqUedaTV93rb6B2OOp33JvQhxA1W+v3xvRDtotM9LDfGdQyOrznP/ptj+R7Y8AlH3l3iD+zaEMKISRGBFIIITEikEIIiRGBFEJIjAikEEJiRCCFEBIjAimEkBgRSCGExIhACiEkRgRSCCExIpBCCIkRgRRCSIwIpBBCYkQghRASIwIphJAYEUghhMSIQAohJEYEUgghMSKQQgiJEYEUQkiMCKQQQmJEIIUQEiMCKYSQGBFIIYTEiEAKISRGBFIIITEikEIIiRGBFEJIjAikEEJiRCCFEBIjAimEkBgRSCGExIhACiEkRgRSCCExIpBCCIkRgRRCSIwIpBBCYkQghRASIwIphJAYhfkuQLgRnQ7a4MiglnHAebuUq8j3xvSq1S5dsvkuxrBqc8CHg1pCp+3O2Kkq35uS254dQ/6ZRSCNChe8Y5/yQS3jrMNetFlRvjemV51OaB3TgdTujO3ODGoZGcft8YJN+d4Y0OmUlgikW1GJGZaqGdQyjtpisfnK8r0xvWqzxyapfBdjGKWUm+veQS2jy27HLbEk3xsD2u2zdog/swikUaHcak+aMqhl7PCSh9ybkOr+1Zqt9YMxHUhFqi3xK4NaRof37PaoR/K9MeCSj/zFEH9m0agdQkiMCKQQQmJEIIUQEiMCKYSQGBFIIYTEiEAKISRGBFIIITEikEIIiRGBFEJIjAikEEJiRCCFEBIjAimEkBgRSCGExIhACiEkRgRSCCExIpBCCIkRgRRCSIwIpBBCYkQghRASIwIphJAYEUghhMSIQAohJEYEUgghMSKQQgiJEYEUQkiMCKQQQmJEIIUQEiMCKYSQGBFIIYTEiEAKISTGtYGUzXeRQgi3iGvSprDHqNT1Jg4hhEHJyvaSLN1D4pAthJAYfQdS1I9CCMOjz3SJGlIIITEK+siqqB+FEIZPH7kTNaQQQmL0HkhRPwohDK9eU6Zw4LOEfMjKyAxqCRlkBr2U4ZK5Jb5sg/8MM0OwlKHbmpv4zLL9z1R4zeSpXl+HPHvDQVWDWsIJ+/3QRqX53pRetTuc7yIMuyYvax7UErocsN3f2pTvTQEdPrm5GbN9vEYq9z/d/395yKf/prIt+d7skLVbSvEgT4l2OqdCSUJ/ZbI6XLRIUb4LMmwuOapL+SCX0q5ZuZJ8bwzI6nTOYsUDmCdV1t018tN/+SyWsj0D6bN46o4jsq353uwQwliRKqVHJOkRSlznLFv2ljisDyGMpH5zpcDVR3FXJVa+Sx9CGEOuzJZrsqegj4l7mzyEEAbr6mS5ImUK+pkh4iiEMPT6SZiC7gn6njWEEIbGdbLmylP+n71KXfW/q1+5avoQQuitRdpVp/ez1wzpMW069+bqQOo7jkIIoS/ZXt/1Hkm9SHe/6q2O1FudKGIphNCXbK/vr/336qlzr3oLpP4iKQ7XQgj967uW1Hc05aSu87rvOIowCiH0pbd6ULaXd1e97rvGk+rj/6+dK4QQrtV3KPXZE+nqaOk9dlJ9Th9CCP3J9vvqqgO39FUzX7/GdK0IqRACN9qjsZ/ejanrDrne+xBC6Et2YO97j5frx1QIIQxE9gaG9Bk0NxpUIYTQvwE82WjwLUMRUiGET93o1a99TNd/nETYhBCG2oAatW9umhBCuJ7r1p9uPGwilkIIN+sGD+VuPmYioEIIfbnJO6n9/523cuM/BBbYAAAAJXRFWHRkYXRlOmNyZWF0ZQAyMDIzLTEwLTI3VDEwOjE2OjI5KzAwOjAw/2SUGQAAACV0RVh0ZGF0ZTptb2RpZnkAMjAyMy0xMC0yN1QxMDoxNjoyOSswMDowMI45LKUAAAAodEVYdGRhdGU6dGltZXN0YW1wADIwMjMtMTAtMjdUMTA6MTY6MjkrMDA6MDDZLA16AAAAAElFTkSuQmCC;" vertex="1" parent="1">
          <mxGeometry x="200" y="-270" width="360.74" height="307" as="geometry" />
        </mxCell>
      </root>
    </mxGraphModel>
  </diagram>
</mxfile>
